<svg width="89" height="33" viewBox="0 0 89 33" fill="none" xmlns="http://www.w3.org/2000/svg">
<path d="M29.6075 30.4427H20.8461L15.1414 19.6376L19.4599 11.1961L29.6075 30.4427Z" fill="#393B8A"/>
<path d="M17.505 7.81949L15.7278 11.1961L13.2043 15.9589L8.76139 24.4004V32.1132H0V24.4004L8.74361 7.81949H17.505Z" fill="#5C65AC"/>
<path d="M29.6074 24.4004V30.4427L19.4599 11.1961L15.1414 19.6376L8.76138 32.1132V24.4004L13.2043 15.9589L15.7278 11.1961L17.505 7.81949H20.384L29.6074 24.4004Z" fill="#43519E"/>
<path d="M4.38958 0H0V7.81949H4.38958V0Z" fill="#5C65AC"/>
<path d="M29.6074 0H4.38954V7.81949H29.6074V0Z" fill="#393B8A"/>
<path d="M41.6743 5.31372L45.9039 10.6807H42.8295L39.2574 5.97127V10.6807H36.716V0.177734H39.2574V4.79835L42.8472 0.177734H45.8862L41.6743 5.31372Z" fill="#1E1E1C"/>
<path d="M53.4746 8.74363H49.5471L48.8895 10.663H46.2238L50.0802 0.231049H53.0125L56.8512 10.663H54.1499L53.4746 8.74363ZM52.817 6.8243L51.5019 2.96787L50.1868 6.8243H52.817Z" fill="#1E1E1C"/>
<path d="M62.8048 0C63.5512 0 64.2443 0.124403 64.884 0.390977C65.5416 0.65755 66.0925 1.03075 66.5723 1.49281C67.0522 1.97265 67.4254 2.54134 67.6919 3.19889C67.9585 3.85643 68.1007 4.58507 68.1007 5.36702C68.1007 6.16674 67.9585 6.8776 67.6919 7.53515C67.4076 8.1927 67.0344 8.76139 66.5723 9.24122C66.1103 9.72105 65.5416 10.0943 64.9018 10.3608C64.262 10.6274 63.5689 10.7696 62.8225 10.7696C62.0761 10.7696 61.383 10.6274 60.7433 10.3608C60.1035 10.0943 59.5348 9.72105 59.0727 9.24122C58.6107 8.76139 58.2197 8.1927 57.9531 7.53515C57.6688 6.8776 57.5444 6.14897 57.5444 5.36702C57.5444 4.5673 57.6865 3.85643 57.9531 3.19889C58.2375 2.54134 58.6107 1.97265 59.0727 1.49281C59.5526 1.01298 60.1035 0.65755 60.7433 0.390977C61.3653 0.142175 62.0584 0 62.8048 0ZM62.8048 2.36362C61.9695 2.36362 61.2942 2.63019 60.8143 3.18111C60.3345 3.71426 60.0857 4.46067 60.0857 5.38479C60.0857 6.30891 60.3345 7.05532 60.8143 7.58846C61.2942 8.12161 61.9695 8.40595 62.8048 8.40595C63.64 8.40595 64.2976 8.13938 64.7952 7.58846C65.2928 7.05532 65.5238 6.30891 65.5238 5.38479C65.5238 4.46067 65.275 3.71426 64.7952 3.18111C64.2976 2.63019 63.64 2.36362 62.8048 2.36362Z" fill="#1E1E1C"/>
<path d="M39.2752 20.0286V22.2145H42.8295V24.1338H39.2752V26.4619H43.2738V28.4878H36.7338V17.9848H43.2738V20.0108H39.2752V20.0286Z" fill="#1E1E1C"/>
<path d="M54.0255 28.4878H51.4842L47.2368 22.0367V28.4878H44.6954V17.9848H47.2368L51.4842 24.4892V17.9848H54.0255V28.4878Z" fill="#1E1E1C"/>
<path d="M60.6899 17.8782C61.3652 17.8782 61.9694 17.9671 62.5203 18.127C63.0713 18.2869 63.5511 18.5358 63.9598 18.8556C64.3686 19.1755 64.724 19.5487 64.9906 19.993C65.2572 20.4373 65.4349 20.9349 65.5415 21.4681H62.858C62.6981 21.0949 62.4315 20.8105 62.0583 20.5795C61.6851 20.3485 61.2408 20.2418 60.7076 20.2418C59.9079 20.2418 59.2681 20.5084 58.7705 21.0415C58.2907 21.5747 58.0419 22.3033 58.0419 23.2452C58.0419 24.2582 58.2907 25.0224 58.8061 25.5555C59.3215 26.0887 60.0323 26.3552 60.9742 26.3552C61.5607 26.3552 62.0938 26.1953 62.5559 25.8576C63.0179 25.52 63.3378 25.0579 63.5333 24.4181H60.3344V22.5877H65.6659V25.0935C65.5237 25.52 65.3283 25.9465 65.0439 26.3552C64.7773 26.764 64.4219 27.1372 64.0132 27.4749C63.6044 27.7947 63.1246 28.0613 62.5737 28.2746C62.0227 28.4701 61.4007 28.5767 60.7076 28.5767C59.9079 28.5767 59.1793 28.4523 58.5395 28.1857C57.882 27.9191 57.331 27.5459 56.8868 27.0839C56.4247 26.604 56.087 26.0531 55.8382 25.3956C55.5894 24.738 55.465 24.0272 55.465 23.2452C55.465 22.4633 55.5894 21.7524 55.8382 21.0949C56.087 20.4373 56.4425 19.8686 56.8868 19.4066C57.331 18.9267 57.882 18.5713 58.5217 18.3047C59.1615 18.0381 59.8902 17.8782 60.6899 17.8782Z" fill="#1E1E1C"/>
<path d="M69.6467 17.9848V28.4878H67.1054V17.9848H69.6467Z" fill="#1E1E1C"/>
<path d="M80.7184 28.4878H78.1771L73.9297 22.0367V28.4878H71.3884V17.9848H73.9297L78.1771 24.4892V17.9848H80.7184V28.4878Z" fill="#1E1E1C"/>
<path d="M85.0014 20.0286V22.2145H88.5557V24.1338H85.0014V26.4619H89V28.4878H82.4601V17.9848H89V20.0108H85.0014V20.0286Z" fill="#1E1E1C"/>
</svg>
